<svg xmlns="http://www.w3.org/2000/svg" xmlns:xlink="http://www.w3.org/1999/xlink" width="40" zoomAndPan="magnify" viewBox="0 0 30 30.000001" height="40" preserveAspectRatio="xMidYMid meet" version="1.0"><defs><clipPath id="ec50d242df"><path d="M 2.660156 2.175781 L 27.339844 2.175781 L 27.339844 26.855469 L 2.660156 26.855469 Z M 2.660156 2.175781 " clip-rule="nonzero"/></clipPath></defs><g clip-path="url(#ec50d242df)"><path fill="#010101" d="M 14.996094 4.402344 C 18.289062 4.402344 18.675781 4.414062 19.980469 4.472656 C 21.179688 4.527344 21.835938 4.726562 22.273438 4.898438 C 22.84375 5.121094 23.257812 5.390625 23.6875 5.824219 C 24.121094 6.257812 24.386719 6.667969 24.613281 7.242188 C 24.78125 7.671875 24.980469 8.328125 25.039062 9.535156 C 25.101562 10.835938 25.109375 11.226562 25.109375 14.519531 C 25.109375 17.8125 25.101562 18.199219 25.039062 19.503906 C 24.988281 20.703125 24.785156 21.359375 24.613281 21.796875 C 24.390625 22.371094 24.121094 22.78125 23.6875 23.214844 C 23.257812 23.644531 22.84375 23.910156 22.273438 24.136719 C 21.839844 24.304688 21.1875 24.503906 19.980469 24.566406 C 18.675781 24.625 18.289062 24.636719 14.996094 24.636719 C 11.703125 24.636719 11.3125 24.625 10.007812 24.566406 C 8.808594 24.511719 8.15625 24.3125 7.71875 24.136719 C 7.144531 23.917969 6.734375 23.644531 6.300781 23.214844 C 5.867188 22.78125 5.601562 22.371094 5.375 21.796875 C 5.207031 21.363281 5.007812 20.710938 4.949219 19.503906 C 4.890625 18.199219 4.878906 17.8125 4.878906 14.519531 C 4.878906 11.226562 4.890625 10.835938 4.949219 9.535156 C 5.003906 8.332031 5.203125 7.679688 5.375 7.242188 C 5.597656 6.667969 5.867188 6.257812 6.300781 5.824219 C 6.734375 5.390625 7.144531 5.125 7.71875 4.898438 C 8.148438 4.730469 8.804688 4.53125 10.007812 4.472656 C 11.3125 4.414062 11.703125 4.402344 14.996094 4.402344 M 14.996094 2.179688 C 11.640625 2.179688 11.226562 2.195312 9.90625 2.253906 C 8.59375 2.316406 7.695312 2.527344 6.910156 2.828125 C 6.101562 3.140625 5.414062 3.5625 4.726562 4.25 C 4.046875 4.9375 3.625 5.625 3.308594 6.433594 C 3.007812 7.21875 2.796875 8.117188 2.738281 9.429688 C 2.675781 10.746094 2.660156 11.167969 2.660156 14.511719 C 2.660156 17.867188 2.675781 18.28125 2.738281 19.601562 C 2.796875 20.914062 3.007812 21.8125 3.308594 22.597656 C 3.625 23.40625 4.046875 24.09375 4.730469 24.78125 C 5.417969 25.46875 6.105469 25.890625 6.917969 26.203125 C 7.699219 26.507812 8.597656 26.71875 9.910156 26.777344 C 11.226562 26.835938 11.648438 26.851562 15 26.851562 C 18.351562 26.851562 18.769531 26.835938 20.089844 26.777344 C 21.402344 26.71875 22.300781 26.507812 23.082031 26.203125 C 23.894531 25.890625 24.582031 25.46875 25.269531 24.78125 C 25.953125 24.09375 26.375 23.40625 26.691406 22.597656 C 26.992188 21.8125 27.203125 20.914062 27.261719 19.601562 C 27.324219 18.289062 27.339844 17.867188 27.339844 14.511719 C 27.339844 11.160156 27.324219 10.746094 27.261719 9.425781 C 27.203125 8.113281 26.992188 7.214844 26.691406 6.429688 C 26.375 5.617188 25.953125 4.933594 25.269531 4.246094 C 24.582031 3.558594 23.894531 3.136719 23.082031 2.824219 C 22.300781 2.519531 21.402344 2.308594 20.089844 2.25 C 18.769531 2.195312 18.347656 2.179688 14.996094 2.179688 " fill-opacity="1" fill-rule="nonzero"/></g><path fill="#010101" d="M 14.996094 8.183594 C 11.496094 8.183594 8.664062 11.015625 8.664062 14.511719 C 8.664062 18.011719 11.5 20.851562 15 20.851562 C 18.5 20.851562 21.335938 18.015625 21.335938 14.511719 C 21.332031 11.015625 18.492188 8.183594 14.996094 8.183594 M 14.996094 18.628906 C 12.722656 18.628906 10.886719 16.789062 10.886719 14.519531 C 10.886719 12.246094 12.722656 10.410156 14.996094 10.410156 C 17.265625 10.410156 19.105469 12.246094 19.105469 14.519531 C 19.109375 16.785156 17.265625 18.628906 14.996094 18.628906 " fill-opacity="1" fill-rule="nonzero"/><path fill="#010101" d="M 23.0625 7.933594 C 23.0625 8.75 22.398438 9.414062 21.582031 9.414062 C 20.765625 9.414062 20.097656 8.75 20.097656 7.933594 C 20.097656 7.117188 20.765625 6.453125 21.582031 6.453125 C 22.398438 6.453125 23.0625 7.109375 23.0625 7.933594 " fill-opacity="1" fill-rule="nonzero"/></svg>