<svg xmlns="http://www.w3.org/2000/svg" xmlns:xlink="http://www.w3.org/1999/xlink" width="40" zoomAndPan="magnify" viewBox="0 0 30 30.000001" height="40" preserveAspectRatio="xMidYMid meet" version="1.0"><defs><clipPath id="0cefb1ac74"><path d="M 2.550781 2.070312 L 27.230469 2.070312 L 27.230469 26.746094 L 2.550781 26.746094 Z M 2.550781 2.070312 " clip-rule="nonzero"/></clipPath></defs><g clip-path="url(#0cefb1ac74)"><path fill="#010101" d="M 27.230469 14.40625 C 27.230469 21.222656 21.707031 26.746094 14.890625 26.746094 C 8.074219 26.746094 2.550781 21.222656 2.550781 14.40625 C 2.550781 7.589844 8.074219 2.070312 14.890625 2.070312 C 21.707031 2.070312 27.230469 7.589844 27.230469 14.40625 Z M 12.632812 20.914062 C 18.105469 20.914062 21.097656 16.382812 21.097656 12.453125 C 21.097656 12.320312 21.097656 12.191406 21.089844 12.070312 C 21.671875 11.648438 22.175781 11.125 22.578125 10.527344 C 22.046875 10.761719 21.472656 10.921875 20.871094 10.996094 C 21.484375 10.625 21.953125 10.046875 22.175781 9.347656 C 21.601562 9.6875 20.96875 9.933594 20.289062 10.070312 C 19.746094 9.492188 18.976562 9.132812 18.117188 9.132812 C 16.476562 9.132812 15.144531 10.464844 15.144531 12.105469 C 15.144531 12.339844 15.167969 12.570312 15.222656 12.785156 C 12.75 12.660156 10.558594 11.476562 9.09375 9.675781 C 8.839844 10.113281 8.691406 10.625 8.691406 11.167969 C 8.691406 12.199219 9.214844 13.113281 10.015625 13.640625 C 9.53125 13.628906 9.074219 13.496094 8.671875 13.273438 C 8.671875 13.285156 8.671875 13.296875 8.671875 13.308594 C 8.671875 14.753906 9.695312 15.949219 11.058594 16.226562 C 10.8125 16.296875 10.546875 16.332031 10.277344 16.332031 C 10.085938 16.332031 9.898438 16.3125 9.714844 16.277344 C 10.089844 17.460938 11.191406 18.320312 12.492188 18.34375 C 11.472656 19.140625 10.191406 19.613281 8.796875 19.613281 C 8.554688 19.613281 8.320312 19.601562 8.085938 19.570312 C 9.386719 20.421875 10.957031 20.914062 12.632812 20.914062 " fill-opacity="1" fill-rule="nonzero"/></g></svg>