<svg xmlns="http://www.w3.org/2000/svg" xmlns:xlink="http://www.w3.org/1999/xlink" width="40" zoomAndPan="magnify" viewBox="0 0 30 30.000001" height="40" preserveAspectRatio="xMidYMid meet" version="1.0"><defs><clipPath id="2d7df43a31"><path d="M 2.660156 2.175781 L 27.339844 2.175781 L 27.339844 26.855469 L 2.660156 26.855469 Z M 2.660156 2.175781 " clip-rule="nonzero"/></clipPath></defs><g clip-path="url(#2d7df43a31)"><path fill="#000000" d="M 23.761719 5.769531 C 21.453125 3.449219 18.378906 2.175781 15.109375 2.175781 C 8.375 2.175781 2.882812 7.667969 2.882812 14.40625 C 2.882812 16.5625 3.449219 18.660156 4.511719 20.511719 L 2.785156 26.855469 L 9.261719 25.152344 C 11.050781 26.125 13.0625 26.644531 15.109375 26.644531 C 21.847656 26.644531 27.339844 21.15625 27.339844 14.417969 C 27.339844 11.148438 26.066406 8.074219 23.761719 5.769531 Z M 15.109375 24.570312 C 13.285156 24.570312 11.496094 24.078125 9.929688 23.152344 L 9.558594 22.929688 L 5.707031 23.941406 L 6.734375 20.191406 L 6.484375 19.808594 C 5.472656 18.191406 4.929688 16.316406 4.929688 14.40625 C 4.929688 8.804688 9.496094 4.238281 15.097656 4.238281 C 17.8125 4.238281 20.367188 5.300781 22.28125 7.222656 C 24.203125 9.148438 25.253906 11.703125 25.253906 14.417969 C 25.277344 20.019531 20.710938 24.570312 15.109375 24.570312 Z M 20.6875 16.972656 C 20.378906 16.824219 18.875 16.082031 18.601562 15.972656 C 18.320312 15.875 18.121094 15.824219 17.910156 16.121094 C 17.703125 16.429688 17.121094 17.121094 16.949219 17.316406 C 16.777344 17.527344 16.589844 17.550781 16.285156 17.390625 C 15.976562 17.242188 14.988281 16.910156 13.828125 15.875 C 12.914062 15.058594 12.308594 14.058594 12.125 13.75 C 11.953125 13.441406 12.101562 13.28125 12.261719 13.121094 C 12.398438 12.984375 12.570312 12.765625 12.71875 12.589844 C 12.867188 12.417969 12.925781 12.28125 13.027344 12.085938 C 13.125 11.875 13.074219 11.703125 13 11.554688 C 12.925781 11.40625 12.308594 9.902344 12.0625 9.285156 C 11.816406 8.691406 11.558594 8.765625 11.371094 8.753906 C 11.1875 8.753906 10.988281 8.753906 10.78125 8.753906 C 10.570312 8.753906 10.25 8.828125 9.964844 9.136719 C 9.695312 9.445312 8.90625 10.183594 8.90625 11.691406 C 8.90625 13.195312 10.003906 14.652344 10.152344 14.847656 C 10.300781 15.058594 12.308594 18.144531 15.371094 19.464844 C 16.097656 19.785156 16.664062 19.96875 17.109375 20.105469 C 17.839844 20.339844 18.503906 20.304688 19.035156 20.230469 C 19.628906 20.144531 20.847656 19.488281 21.09375 18.773438 C 21.355469 18.058594 21.355469 17.453125 21.269531 17.316406 C 21.183594 17.179688 20.996094 17.121094 20.6875 16.972656 Z M 20.6875 16.972656 " fill-opacity="1" fill-rule="nonzero"/></g></svg>